<?xml version="1.0" encoding="utf-8"?>
<!-- Generator: Adobe Illustrator 27.2.0, SVG Export Plug-In . SVG Version: 6.00 Build 0)  -->
<svg version="1.1" id="Layer_1" xmlns="http://www.w3.org/2000/svg" xmlns:xlink="http://www.w3.org/1999/xlink" x="0px" y="0px"
	 viewBox="0 0 640 360" enable-background="new 0 0 640 360" xml:space="preserve"  width="640" height="360">
<rect fill="#F0CABD" width="640" height="360"/>
<path opacity="0.4" fill="#FFFFFF" enable-background="new    " d="M473.4,129.9c0-50.9-37.5-92.2-83.8-92.2
	c-29.2,0-54.8,16.4-69.9,41.3c-15-24.9-40.7-41.3-69.9-41.3c-46.3,0-83.8,41.3-83.8,92.2c0,23.1,6.1,41,30.7,69.2
	c53.8,61.5,113,108.1,123,123c15.4-23.1,107.3-103,122.8-120.7S473.4,158.7,473.4,129.9z"/>
<path opacity="0.4" fill="#FFFFFF" enable-background="new    " d="M442.7,142.2c0-40.7-30-73.8-67.1-73.8
	c-23.3,0-43.9,13.1-55.9,33c-12-19.9-32.5-33-55.9-33c-37,0-67.1,33-67.1,73.8c0,18.4,4.9,32.8,24.6,55.3
	c43,49.2,90.4,86.5,98.4,98.4c12.3-18.4,85.9-82.4,98.3-96.5C430.4,185.2,442.7,165.2,442.7,142.2z"/>
</svg>
