<svg xmlns="http://www.w3.org/2000/svg" xmlns:xlink="http://www.w3.org/1999/xlink" version="1.1" id="Layer_1" x="0px" y="0px" viewBox="0 0 128 128" style="enable-background:new 0 0 128 128;" xml:space="preserve" width="128px" height="128px">

<g id="face_00000145016291117986021450000016200360057016944516_">
	
		<radialGradient id="face_00000027581530477042251810000012641427823784961975_" cx="63.2" cy="1166.9" r="56.9597" gradientTransform="matrix(1 0 0 1 0 -1104)" gradientUnits="userSpaceOnUse">
		<stop offset="0.5" style="stop-color:#FDE030"/>
		<stop offset="0.92" style="stop-color:#F7C02B"/>
		<stop offset="1" style="stop-color:#F4A223"/>
	</radialGradient>
	<path id="face" style="fill:url(#face_00000027581530477042251810000012641427823784961975_);" d="M63.2,118.8   c-27.9,0-58-17.5-58-55.9S35.3,7,63.2,7c15.5,0,29.8,5.1,40.4,14.4c11.5,10.2,17.6,24.6,17.6,41.5s-6.1,31.2-17.6,41.4   C93,113.6,78.6,118.8,63.2,118.8z"/>
	<path d="M111.5,29.7c5.3,8.6,8.1,18.8,8.1,30.2c0,16.9-6.1,31.2-17.6,41.4c-10.6,9.3-25,14.5-40.4,14.5   c-18.1,0-37-7.3-48.2-22.9c10.8,17.7,31,25.9,50.2,25.9c15.4,0,29.8-5.2,40.4-14.5c11.5-10.2,17.6-24.5,17.6-41.4   C121.6,50.2,118.1,38.8,111.5,29.7z" fill="#EB8F00"/>
</g>
<g id="mouth">
	<path d="M102.1,71.6c-1.4-2.5-4.4-3.6-7.1-2.6c-10.3,3-20.9,4.5-31.6,4.4C52.7,73.5,42,72,31.8,69   c-2.7-1-5.7,0.1-7.1,2.6s-0.4,5.4,0.8,7.9c6.4,14.1,20.6,22.5,37.9,22.6h0.2c17.3,0,31.4-8.5,37.9-22.6   C102.4,77,103.4,74.1,102.1,71.6z" fill="#422B0D"/>
	<path d="M63.4,100.9" fill="#422B0D"/>
	<path d="M94.9,69c-10.3,3-20.9,4.5-31.6,4.4C52.7,73.5,42,72,31.8,69c-2.7-1-5.7,0.1-7.1,2.6c-0.2,0.4-0.4,0.8-0.5,1.2   c0.3,0.2,0.7,0.3,1.2,0.5c12,6,25.3,9.1,38.8,8.9c12.9,0.2,25.7-2.7,37.3-8.2c0.5-0.2,0.9-0.4,1.2-0.6c-0.1-0.7-0.3-1.3-0.6-1.9   C100.7,69.1,97.6,68,94.9,69z" fill="#FFFFFF"/>
	<path d="M102.1,71.6c-1.4-2.5-4.5-3.7-7.2-2.6c-10.3,3-20.9,4.5-31.6,4.4C52.7,73.5,42,72,31.8,69   c-2.7-1-5.7,0.1-7.1,2.6s-0.4,5.4,0.8,7.9c0.5,1.1,1.1,2.2,1.7,3.3c0,0-2.1-7.8-0.3-10c0.6-1,1.7-1.6,2.8-1.6   c0.5,0,0.9,0.1,1.4,0.2C41.4,74.5,52.3,76,63.2,76h0.3c10.9,0,21.7-1.5,32.2-4.6c0.4-0.1,0.9-0.2,1.4-0.2c1.1,0.1,2.2,0.7,2.8,1.6   c1.8,2.3-0.3,10.1-0.3,10.1c0.6-1.1,1.2-2.2,1.8-3.3C102.5,77.1,103.5,74.2,102.1,71.6z" fill="#EB8F00"/>
</g>
<path d="M79.3,98.1c-0.4-0.3-0.8-0.7-1.1-1c-4.1-3.6-9.4-5.5-14.8-5.4c-5.6-0.1-11,1.8-15.4,5.3c-0.4,0.3-0.8,0.6-1.2,1  s-0.6,0.7-0.8,1c5.5,2.2,11.4,3.2,17.3,3.2h0.2c5.7,0,11.3-1,16.6-3C79.8,98.8,79.6,98.5,79.3,98.1z" fill="#ED7770"/>
<g id="left_eye">
	<path d="M44,40.9L44,40.9c-4.2,0-8,3.5-8,9.4s3.8,9.4,8,9.4l0,0c4.2,0,8-3.5,8-9.4S48.2,40.9,44,40.9z" fill="#422B0D"/>
	<path d="M43.7,44.9L43.7,44.9c-1.4-0.7-3.1-0.1-3.8,1.3c-0.5,1.1-0.3,2.4,0.6,3.3l0,0c1.4,0.7,3.1,0.1,3.8-1.3   C44.8,47.1,44.5,45.7,43.7,44.9z" fill="#896024"/>
</g>
<g id="right_eye">
	<path d="M82.4,40.9L82.4,40.9c-4.2,0-8,3.5-8,9.4s3.8,9.4,8,9.4l0,0c4.2,0,8-3.5,8-9.4S86.6,40.9,82.4,40.9z" fill="#422B0D"/>
	<path d="M82,44.9L82,44.9c-1.4-0.7-3.1-0.1-3.8,1.3c-0.5,1.1-0.3,2.4,0.6,3.3l0,0c1.4,0.7,3.1,0.1,3.8-1.3   C83.1,47.1,82.9,45.7,82,44.9z" fill="#896024"/>
</g>
</svg>