<svg xmlns="http://www.w3.org/2000/svg" xmlns:xlink="http://www.w3.org/1999/xlink" version="1.1" id="Layer_1" x="0px" y="0px" viewBox="0 0 128 128" style="enable-background:new 0 0 128 128;" xml:space="preserve" width="128px" height="128px">

<g id="right_arm">
	<path d="M100.4,43.9c5.8-0.7,11.8-3.4,14-8.9c1.7-4.3,3.2-10.6,8.2-9.9c6.2,0.9,4.8,13.4,3.3,18.3   c-5.9,19.6-25.1,22.7-25.4,22.2C100.1,65.1,98.9,43.8,100.4,43.9z" fill="#E0E0E0"/>
	<path d="M100.4,43.9c3.2-0.3,6.2-1.4,8.9-3c-0.7,2.6-0.4,5.3,0.8,7.7c2.2,5,8.3,7.7,8.3,7.7c-7.8,8.1-17.7,9.6-18,9.3   C100,65,98.9,43.8,100.4,43.9z" fill="#CCCCCC"/>
</g>
<g id="left_arm">
	<path d="M27.6,43.9c-5.8-0.7-11.8-3.4-14-8.9c-1.7-4.3-3.2-10.6-8.2-9.9C-0.7,26,0.8,38.5,2.2,43.3   C8.1,62.9,27.3,66,27.6,65.5C27.9,65.1,29.1,43.8,27.6,43.9z" fill="#E0E0E0"/>
	<path d="M7.9,48.1c3.8,4.2,12.4,8.2,20.4,8.7c0,2.9-0.2,5.8-0.6,8.7C27.3,66,8.1,62.9,2.2,43.3   c-1-3.6-1.4-7.4-1.2-11.2C1.6,38,4,43.6,7.9,48.1z" fill="#CCCCCC"/>
</g>
<g id="body">
	<path d="M16.7,109.4c0.9-1.8,2.9-2.8,4.8-2.4l1,0.1h0.3c3.8,0,5.4-1,6.6-3.8c1.8-4.3,0.3-10.5-1.1-15.5   c-3-10.2-7.1-24.3-7-38c0-2.5,0.2-5.1,0.5-7.6c0.5-4,1.4-8,2.8-11.8C24.1,49.5,27.8,74,44.3,91c13.2,13.6,35.7,21.5,44.8,20   c-10.5,11.2-25.6,17-40.9,15.6c-13.6-1.1-29.4-6.6-31.7-12.8C16,112.4,16,110.8,16.7,109.4z" fill="#E0E0E0"/>
	<path d="M21.2,49.7c0-2.5,0.2-5.1,0.5-7.6c2-16.4,11.2-30.6,24.1-37.1c5.8-3,12.4-4.3,18.9-3.7   c13.6,1.4,25.7,9.1,32.7,20.8c17.7,29.7,6.4,65.6,3.4,71.7c-15.3,31.2-40.1,33.8-52.6,32.8c-13.6-1.1-29.4-6.6-31.7-12.8   c-0.5-1.5-0.5-3.1,0.2-4.5c0.9-1.8,2.9-2.8,4.8-2.4l1,0.1h0.3c3.8,0,5.4-1,6.6-3.8c1.8-4.3,0.3-10.5-1.1-15.5   C25.2,77.5,21.1,63.5,21.2,49.7z" fill="#E0E0E0"/>
	<path d="M16.7,109.4c0.9-1.8,2.9-2.8,4.8-2.4l1,0.1h0.3c3.8,0,5.4-1,6.6-3.8c1.8-4.3,0.3-10.5-1.1-15.5   c-3-10.2-7.1-24.3-7-38c0-2.5,0.2-5.1,0.5-7.6c0.5-4,1.4-8,2.8-11.8C24.1,49.5,27.8,74,44.3,91c13.2,13.6,35.7,21.5,44.8,20   c-10.5,11.2-25.6,17-40.9,15.6c-13.6-1.1-29.4-6.6-31.7-12.8C16,112.4,16,110.8,16.7,109.4z" fill="#CCCCCC"/>
</g>
<linearGradient id="mouth_00000138546828617898916350000012768316130423237802_" gradientUnits="userSpaceOnUse" x1="66.2835" y1="53.6504" x2="66.2835" y2="78.2879" gradientTransform="matrix(1 0 0 -1 0 130)">
	<stop offset="0" style="stop-color:#404040"/>
	<stop offset="0.12" style="stop-color:#3E3A35"/>
	<stop offset="0.44" style="stop-color:#392D1E"/>
	<stop offset="0.74" style="stop-color:#362510"/>
	<stop offset="1" style="stop-color:#35220B"/>
</linearGradient>
<path id="mouth" style="fill:url(#mouth_00000138546828617898916350000012768316130423237802_);" d="M66.3,53.9  c8.5,0,17-0.7,25.4-2.1c1.4-0.2,2.8,0.7,3,2.1c0,0.3,0,0.6,0,0.9c-2.4,11.8-14.1,21.6-28.4,21.6c-15.7,0-26.3-10-28.4-21.6  c-0.2-1.4,0.7-2.8,2.1-3c0.3,0,0.6,0,0.9,0C49.3,53.2,57.8,53.9,66.3,53.9z"/>
<g id="tongue">
	
		<linearGradient id="SVGID_1_" gradientUnits="userSpaceOnUse" x1="65.7799" y1="42.3801" x2="65.7799" y2="73.3701" gradientTransform="matrix(1 0 0 -1 0 130)">
		<stop offset="0" style="stop-color:#FF4081"/>
		<stop offset="0.28" style="stop-color:#FB3D80"/>
		<stop offset="0.55" style="stop-color:#EF337D"/>
		<stop offset="0.82" style="stop-color:#DB2378"/>
		<stop offset="1" style="stop-color:#CA1573"/>
	</linearGradient>
	<path d="M64.3,57.3h2h0.9c4.2,0,8.4-0.2,12.4-0.5v18.2c0,7-5.7,12.7-12.7,12.7h-2.4c-7,0-12.7-5.7-12.7-12.7V56.6   C55.9,57,60.1,57.2,64.3,57.3z" fill="url(#SVGID_1_)"/>
	<path d="M65.8,73c-0.8,0-1.5-0.7-1.5-1.5v0V57.3h2h0.9v14.3C67.3,72.3,66.6,73,65.8,73z" opacity="0.3" fill="#AB3F2E" enable-background="new"/>
</g>
<g id="left_eye">
	<path d="M52.8,45.6c-6.4,0-11.7-5.2-11.7-11.7s5.2-11.6,11.7-11.6s11.7,5.2,11.7,11.6S59.3,45.6,52.8,45.6z" fill="#FFFFFF"/>
	<path d="M52.3,39c-2.8,0-5-2.3-5-5.1s2.2-5.1,5-5.1c2.8,0,5,2.3,5,5.1S55.1,39,52.3,39z" fill="#422B0D"/>
</g>
<path id="right_eye" d="M72.9,36l0.1-0.2c0.1-0.2,0.2-0.4,0.4-0.5c0.4-0.6,0.9-1.1,1.4-1.6c0.7-0.7,1.5-1.3,2.2-1.9  c0.4-0.3,0.9-0.6,1.3-0.9s0.9-0.6,1.5-0.9c0.5-0.3,1-0.5,1.5-0.8c0.5-0.2,1-0.5,1.5-0.7c0.9-0.4,1.8-0.7,2.8-1  c0.7-0.2,1.4-0.3,2.1-0.4h0.6h0.2c0.9,0,1.7,0.7,1.7,1.6c0,0.7-0.4,1.4-1.1,1.6L89,30.4l-0.6,0.2c-0.4,0.1-0.9,0.3-1.6,0.6  c-0.7,0.3-1.5,0.6-2.3,1.1l-1.3,0.7c-0.4,0.2-0.9,0.5-1.3,0.7l-0.3,0.2l0.9,0.1c0.3,0.1,0.5,0.1,0.8,0.2s0.6,0.1,0.9,0.2  c0.6,0.1,1.1,0.3,1.6,0.5c1,0.4,1.9,0.8,2.7,1.4c0.4,0.2,0.7,0.5,1,0.8c0.2,0.2,0.5,0.5,0.7,0.7c0.2,0.2,0.3,0.4,0.4,0.5l0.1,0.2  c0.5,0.7,0.4,1.8-0.3,2.3c-0.6,0.4-1.4,0.4-2,0l-0.2-0.1l-0.1-0.1l-0.3-0.2c-0.4-0.3-0.9-0.5-1.3-0.8c-0.7-0.3-1.4-0.6-2.1-0.8  c-0.4-0.1-0.8-0.2-1.3-0.3c-0.2-0.1-0.4-0.1-0.6-0.1c-0.2,0-0.5-0.1-0.7-0.1c-0.9-0.1-1.8-0.2-2.7-0.2c-0.8,0-1.5,0.1-2.2,0.2  c-0.3,0.1-0.6,0.1-0.9,0.2c-0.2,0.1-0.4,0.1-0.6,0.2l-0.2,0.1l-0.2,0.1l-0.2,0.1c-0.7,0.3-1.5,0.1-1.9-0.5c-0.2-0.3-0.4-0.6-0.4-1  C72.6,36.8,72.6,36.4,72.9,36z" fill="#422B0D"/>
</svg>