<svg xmlns="http://www.w3.org/2000/svg" xmlns:xlink="http://www.w3.org/1999/xlink" version="1.1" id="Layer_1" x="0px" y="0px" viewBox="0 0 128 128" style="enable-background:new 0 0 128 128;" xml:space="preserve" width="128px" height="128px">

<g id="face_00000148628248564175424080000010042315933279532188_">
	
		<radialGradient id="face_00000098924972886634617000000008056469521634994359_" cx="63.6" cy="2350.8999" r="56.9597" gradientTransform="matrix(1 0 0 1 0 -2288)" gradientUnits="userSpaceOnUse">
		<stop offset="0.5" style="stop-color:#FDE030"/>
		<stop offset="0.92" style="stop-color:#F7C02B"/>
		<stop offset="1" style="stop-color:#F4A223"/>
	</radialGradient>
	<path id="face" style="fill:url(#face_00000098924972886634617000000008056469521634994359_);" d="M63.6,118.8   c-27.9,0-58-17.5-58-55.9S35.7,7,63.6,7c15.5,0,29.8,5.1,40.4,14.4c11.5,10.2,17.6,24.6,17.6,41.5s-6.1,31.2-17.6,41.4   C93.4,113.6,79,118.8,63.6,118.8z"/>
	<path d="M111.5,29.7c5.3,8.6,8.1,18.8,8.1,30.2c0,16.9-6.1,31.2-17.6,41.4c-10.6,9.3-25,14.5-40.4,14.5   c-18.1,0-37-7.3-48.2-22.9c10.8,17.7,31,25.9,50.2,25.9c15.4,0,29.8-5.2,40.4-14.5c11.5-10.2,17.6-24.5,17.6-41.4   C121.6,50.2,118.1,38.8,111.5,29.7z" fill="#EB8F00"/>
</g>
<g id="right_eye">
	<path d="M44,40.9L44,40.9c-4.2,0-8,3.5-8,9.4s3.8,9.4,8,9.4l0,0c4.2,0,8-3.5,8-9.4S48.2,40.9,44,40.9z" fill="#422B0D"/>
	<path d="M43.7,44.9L43.7,44.9c-1.4-0.7-3.1-0.1-3.8,1.3c-0.5,1.1-0.3,2.4,0.6,3.3l0,0c1.4,0.7,3.1,0.1,3.8-1.3   C44.8,47.1,44.5,45.7,43.7,44.9z" fill="#896024"/>
</g>
<g id="left_eye">
	<path d="M82.4,40.9L82.4,40.9c-4.2,0-8,3.5-8,9.4s3.8,9.4,8,9.4l0,0c4.2,0,8-3.5,8-9.4S86.6,40.9,82.4,40.9z" fill="#422B0D"/>
	<path d="M82,44.9L82,44.9c-1.4-0.7-3.1-0.1-3.8,1.3c-0.5,1.1-0.3,2.4,0.6,3.3l0,0c1.4,0.7,3.1,0.1,3.8-1.3   C83.1,47.1,82.9,45.7,82,44.9z" fill="#896024"/>
</g>
<path id="mouth" d="M64.2,78.2C73.3,78.1,82,81.9,88,88.7c0.5,0.5,0.6,1.3,0.3,1.9c-0.3,0.7-0.9,1.1-1.6,1.1l0,0  c-0.3,0-0.6-0.1-0.9-0.2c-4.8-2.8-12.9-6.2-21.5-6.2h-0.1c-8.6,0-16.7,3.4-21.5,6.2c-0.3,0.2-0.6,0.2-0.9,0.2l0,0  c-0.7,0-1.3-0.4-1.6-1.1c-0.3-0.6-0.2-1.4,0.3-1.9C46.3,81.9,55,78.1,64.2,78.2" fill="#422B0D"/>
</svg>